<svg width="56" height="49" viewBox="0 0 56 49" fill="none" xmlns="http://www.w3.org/2000/svg">
<path d="M39.8079 20.6158L41.7978 18.653V10.5563H2V38.5563H3.98989V12.5563H39.8079V20.6158Z" fill="#C9D5FF"/>
<path d="M39.8079 32.9245V38.5563H41.7978V30.9409L39.8079 32.9245Z" fill="#C9D5FF"/>
<path d="M32.8433 20.5563H10.9545V22.5563H32.8433V20.5563Z" fill="#C9D5FF"/>
<path d="M21.8989 31.5563H10.9545V33.5563H21.8989V31.5563Z" fill="#C9D5FF"/>
<path d="M53.3951 14.959L51.7123 13.2276C51.3139 12.8179 50.7815 12.5919 50.215 12.5919C49.6486 12.5924 49.1161 12.8185 48.7332 13.213L33.4311 28.3068C33.33 28.4059 33.2523 28.5251 33.2008 28.6569L30.9797 34.3713C30.835 34.7439 30.9253 35.1672 31.2091 35.448C31.3985 35.6355 31.6502 35.7351 31.9067 35.7351C32.034 35.7351 32.1622 35.7107 32.2837 35.6604L37.8366 33.3743C37.9581 33.3245 38.0678 33.2513 38.1601 33.159L53.3836 17.9842L53.3952 17.9725C54.2017 17.1419 54.2016 15.7901 53.3951 14.959ZM50.2888 14.6255L51.9707 16.356C52.0261 16.4126 52.0261 16.5147 51.9736 16.5723L51.2919 17.2517L49.426 15.3315L50.1265 14.6406C50.1323 14.6352 50.284 14.6303 50.2888 14.6255ZM36.8989 31.5986L33.6779 32.9248L34.977 29.584L48.0055 16.7328L49.8787 18.6605L36.8989 31.5986Z" fill="#C9D5FF"/>
<path d="M32.2739 28.2931C32.3789 28.025 32.5343 27.7892 32.7364 27.591L32.8432 27.4856V26.5563H10.9545V28.5563H32.1716L32.2739 28.2931Z" fill="#C9D5FF"/>
</svg>
