<svg width="46" height="36" viewBox="0 0 46 36" fill="none" xmlns="http://www.w3.org/2000/svg">
<path d="M33.3244 14.9893L35.0688 13.2687V6.1709H0.180908V30.7165H1.9253V7.92415H33.3244V14.9893Z" fill="white"/>
<path d="M33.3244 25.7795V30.7165H35.0688V24.0406L33.3244 25.7795Z" fill="white"/>
<path d="M27.219 14.9372H8.03068V16.6904H27.219V14.9372Z" fill="white"/>
<path d="M17.6248 24.5801H8.03068V26.3333H17.6248V24.5801Z" fill="white"/>
<path d="M45.2353 10.0305L43.7601 8.51267C43.4109 8.15352 42.9442 7.9554 42.4475 7.9554C41.951 7.95584 41.4842 8.15405 41.1486 8.49987L27.7343 21.7315C27.6456 21.8184 27.5775 21.9229 27.5324 22.0384L25.5853 27.0478C25.4584 27.3745 25.5376 27.7455 25.7864 27.9917C25.9524 28.1561 26.1731 28.2434 26.398 28.2434C26.5095 28.2434 26.6219 28.222 26.7284 28.1779L31.5963 26.1738C31.7028 26.1302 31.799 26.066 31.8799 25.9851L45.2252 12.6824L45.2354 12.6722C45.9423 11.9441 45.9422 10.759 45.2353 10.0305ZM42.5122 9.73811L43.9866 11.2551C44.0352 11.3047 44.0352 11.3942 43.9891 11.4447L43.3916 12.0403L41.7559 10.357L42.3699 9.75135C42.375 9.74662 42.508 9.74232 42.5122 9.73811ZM30.7742 24.6172L27.9507 25.7798L29.0895 22.8512L40.5106 11.5854L42.1527 13.2753L30.7742 24.6172Z" fill="white"/>
<path d="M26.7199 21.7195C26.8119 21.4844 26.9481 21.2777 27.1253 21.104L27.2189 21.0116V20.1969H8.03068V21.9502H26.6302L26.7199 21.7195Z" fill="white"/>
</svg>
