<svg width="18" height="16" viewBox="0 0 18 16" fill="none" xmlns="http://www.w3.org/2000/svg">
<g clip-path="url(#clip0_182_3410)">
<path d="M15.9231 5.45239C15.8767 7.74693 13.694 9.79473 12.1089 11.2381C10.9727 12.2726 9.7577 13.2473 8.4663 14.0894H9.51445C7.6659 12.8841 5.92657 11.4302 4.43242 9.81915C3.44913 8.75892 2.42798 7.49746 2.12209 6.0577C1.84112 4.7351 2.37219 3.16952 3.60004 2.48772C5.32033 1.53236 7.1547 2.71501 8.25622 4.01775C8.6748 4.51279 9.59835 4.36015 9.887 3.81059C10.6059 2.442 11.9333 1.73038 13.4751 2.18598C14.9537 2.62289 15.894 3.95511 15.9231 5.45239C15.9487 6.76803 18.0255 6.77239 17.9998 5.45246C17.9528 3.03605 16.3965 0.913743 14.0271 0.212083C11.6348 -0.496468 9.22511 0.623677 8.09382 2.77744L9.72461 2.57028C8.32322 0.912856 6.2418 -0.204627 4.01135 0.194547C2.02864 0.5493 0.533594 2.18128 0.127611 4.09049C-0.708654 8.02314 2.7347 11.3484 5.5138 13.648C6.45764 14.4289 7.4376 15.1862 8.4663 15.857C8.75863 16.0476 9.22206 16.0476 9.51445 15.857C11.0506 14.8554 12.5079 13.6886 13.8429 12.4406C15.7827 10.6273 17.9435 8.23979 17.9998 5.45246C18.0265 4.13471 15.9498 4.13471 15.9231 5.45239Z" fill="#009E22"/>
</g>
<defs>
<clipPath id="clip0_182_3410">
<rect width="18" height="16" fill="white"/>
</clipPath>
</defs>
</svg>
