<svg width="48" height="49" viewBox="0 0 48 49" fill="none" xmlns="http://www.w3.org/2000/svg">
<path d="M9.05098 8.55627H36.5249C37.1473 8.55627 37.715 8.81303 38.1239 9.22436C38.5328 9.63569 38.788 10.2068 38.788 10.833V38.2795C38.788 38.9057 38.5328 39.4769 38.1239 39.8882C37.715 40.2995 37.1473 40.5563 36.5249 40.5563H9.05098C8.42859 40.5563 7.86088 40.2995 7.45203 39.8882C7.04317 39.4769 6.78796 38.9057 6.78796 38.2795V10.833C6.78796 10.2068 7.04317 9.63569 7.45203 9.22436C7.86088 8.81303 8.42859 8.55627 9.05098 8.55627ZM8.61609 31.6904L18.3843 22.8114C18.7567 22.4734 19.3322 22.5022 19.6682 22.8769C19.676 22.8847 19.6812 22.8926 19.689 22.9005L19.6916 22.8978L27.8817 32.6493L29.1369 24.8969C29.2177 24.3965 29.6864 24.0585 30.1838 24.1397C30.3791 24.1711 30.5484 24.2628 30.6786 24.3912L36.9677 30.4642V10.833C36.9677 10.7125 36.9182 10.6051 36.84 10.5239C36.7619 10.4453 36.6525 10.3955 36.5328 10.3955H9.05098C8.93119 10.3955 8.82442 10.4453 8.74369 10.5239C8.66557 10.6025 8.61609 10.7125 8.61609 10.833V31.6904ZM36.9598 33.0056L30.6525 26.9142L29.3635 34.8815C29.3348 35.0989 29.2281 35.3085 29.0484 35.4631C28.663 35.7906 28.09 35.7408 27.7645 35.3557L18.9025 24.8052L8.61609 34.1584V38.2795C8.61609 38.4001 8.66557 38.5075 8.74369 38.5887C8.82442 38.6699 8.93119 38.7171 9.05098 38.7171H36.5249C36.6447 38.7171 36.7515 38.6673 36.8322 38.5887C36.9104 38.5101 36.9598 38.4001 36.9598 38.2795V33.0056ZM30.9025 13.7595C31.8088 13.7595 32.6265 14.1289 33.2203 14.7262C33.814 15.3236 34.1812 16.1489 34.1812 17.058C34.1812 17.9671 33.814 18.7924 33.2203 19.3897C32.6265 19.9871 31.8062 20.3565 30.9025 20.3565C29.9963 20.3565 29.1786 19.9871 28.5848 19.3897C27.9911 18.7924 27.6239 17.9671 27.6239 17.058C27.6239 16.1489 27.9911 15.3236 28.5848 14.7262C29.1786 14.1289 29.9963 13.7595 30.9025 13.7595ZM32.1994 15.7533C31.8687 15.4205 31.4104 15.2136 30.9025 15.2136C30.3973 15.2136 29.939 15.4205 29.6057 15.7533C29.2749 16.086 29.0692 16.5471 29.0692 17.058C29.0692 17.5663 29.2749 18.0274 29.6057 18.3627C29.9364 18.6955 30.3947 18.9024 30.9025 18.9024C31.4078 18.9024 31.8661 18.6955 32.1994 18.3627C32.5302 18.03 32.7359 17.5689 32.7359 17.058C32.7359 16.5497 32.5302 16.0886 32.1994 15.7533Z" fill="#C9D5FF"/>
</svg>
