<svg width="47" height="42" viewBox="0 0 47 42" fill="none" xmlns="http://www.w3.org/2000/svg">
<path d="M8.13558 4.98596H35.6095C36.2319 4.98596 36.7996 5.24272 37.2085 5.65405C37.6174 6.06538 37.8726 6.63653 37.8726 7.26269V34.7092C37.8726 35.3354 37.6174 35.9065 37.2085 36.3179C36.7996 36.7292 36.2319 36.986 35.6095 36.986H8.13558C7.51318 36.986 6.94548 36.7292 6.53662 36.3179C6.12777 35.9065 5.87256 35.3354 5.87256 34.7092V7.26269C5.87256 6.63653 6.12777 6.06538 6.53662 5.65405C6.94548 5.24272 7.51318 4.98596 8.13558 4.98596ZM7.70068 28.1201L17.4689 19.2411C17.8413 18.9031 18.4168 18.9319 18.7528 19.3066C18.7606 19.3144 18.7658 19.3223 18.7736 19.3302L18.7762 19.3275L26.9663 29.079L28.2215 21.3266C28.3022 20.8261 28.771 20.4882 29.2684 20.5694C29.4637 20.6008 29.633 20.6925 29.7632 20.8209L36.0522 26.8939V7.26269C36.0522 7.14218 36.0028 7.03476 35.9246 6.95354C35.8465 6.87494 35.7371 6.82516 35.6174 6.82516H8.13558C8.01579 6.82516 7.90902 6.87494 7.82829 6.95354C7.75016 7.03214 7.70068 7.14218 7.70068 7.26269V28.1201ZM36.0444 29.4353L29.7371 23.3439L28.4481 31.3112C28.4194 31.5286 28.3127 31.7382 28.133 31.8928C27.7476 32.2203 27.1746 32.1705 26.8491 31.7854L17.9871 21.2349L7.70068 30.5881V34.7092C7.70068 34.8297 7.75016 34.9372 7.82829 35.0184C7.90902 35.0996 8.01579 35.1468 8.13558 35.1468H35.6095C35.7293 35.1468 35.8361 35.097 35.9168 35.0184C35.995 34.9398 36.0444 34.8297 36.0444 34.7092V29.4353ZM29.9871 10.1892C30.8934 10.1892 31.7111 10.5586 32.3049 11.1559C32.8986 11.7533 33.2658 12.5786 33.2658 13.4877C33.2658 14.3968 32.8986 15.2221 32.3049 15.8194C31.7111 16.4168 30.8908 16.7862 29.9871 16.7862C29.0809 16.7862 28.2632 16.4168 27.6694 15.8194C27.0757 15.2221 26.7085 14.3968 26.7085 13.4877C26.7085 12.5786 27.0757 11.7533 27.6694 11.1559C28.2632 10.5586 29.0809 10.1892 29.9871 10.1892ZM31.284 12.1829C30.9533 11.8502 30.495 11.6432 29.9871 11.6432C29.4819 11.6432 29.0236 11.8502 28.6903 12.1829C28.3595 12.5157 28.1538 12.9768 28.1538 13.4877C28.1538 13.996 28.3595 14.4571 28.6903 14.7924C29.021 15.1251 29.4793 15.3321 29.9871 15.3321C30.4924 15.3321 30.9507 15.1251 31.284 14.7924C31.6147 14.4597 31.8205 13.9986 31.8205 13.4877C31.8205 12.9794 31.6147 12.5183 31.284 12.1829Z" fill="white"/>
</svg>
