  <svg
            width="24"
            height="24"
            viewBox="0 0 24 24"
            fill="none"
            xmlns="http://www.w3.org/2000/svg"
          >
            <g clip-path="url(#clip0_182_5275)">
              <path
                d="M21.5448 21.0624C21.4399 20.8597 21.3197 20.7545 21.2295 20.6793C20.8989 20.4466 20.6665 20.4092 20.5088 20.3491L20.0059 20.1914L18.9846 19.9062L16.9728 19.3732C16.3041 19.2005 15.6435 19.0279 14.9984 18.8402C14.5027 18.6976 13.9771 18.5323 13.5643 18.3446C13.6618 18.3072 13.7666 18.2621 13.8722 18.232C14.4873 18.0443 15.1479 17.9017 15.8166 17.7742C17.1451 17.5187 18.5117 17.3236 19.8702 17.1433C20.1936 17.0982 20.426 16.8057 20.3959 16.4827C20.3585 16.1524 20.0579 15.9119 19.728 15.9497C18.3467 16.0923 16.9728 16.2576 15.5834 16.4827C14.8855 16.6029 14.1948 16.7305 13.4814 16.9332C13.1134 17.0535 12.7681 17.136 12.3252 17.4212C12.2204 17.5036 12.0928 17.5938 11.9572 17.7888C11.8223 17.9619 11.7321 18.3596 11.845 18.6298C12.0554 19.1327 12.3032 19.2306 12.4829 19.3732C13.2336 19.8237 13.8869 20.0037 14.5702 20.2365C15.2462 20.4543 15.9141 20.642 16.5747 20.8296L18.5564 21.4077L18.6466 21.4301C18.1136 21.5353 17.5586 21.6178 17.0028 21.6856C15.6589 21.8432 14.2997 21.9481 12.9338 22.0159C11.2291 22.0984 9.52527 22.1211 7.82799 22.0834L5.31323 23.9903C7.90351 24.0878 10.4784 24.0204 13.0459 23.8327C14.4426 23.7275 15.8393 23.5849 17.2279 23.3822C17.9259 23.277 18.6246 23.1644 19.3372 22.9995C19.6906 22.9166 20.0433 22.8268 20.426 22.6989C20.621 22.6241 20.8087 22.5563 21.0646 22.4063C21.1841 22.3011 21.3498 22.2637 21.5595 21.8583C21.6049 21.7531 21.6423 21.6255 21.6423 21.4679C21.6423 21.3176 21.5976 21.1827 21.5448 21.0624Z"
                fill="#323063"
              />
              <path
                d="M8.80453 19.1477L15.2161 5.31878L13.5943 4.56068L7.33308 18.0667C7.25755 18.232 7.25022 18.4271 7.31034 18.5997C7.37779 18.7724 7.50536 18.915 7.67033 18.9901V18.9978C7.5281 19.2156 7.35507 19.4256 7.14538 19.5833L5.58374 20.7695L3.51914 19.8087L3.41356 17.8566C3.39891 17.5865 3.44363 17.3236 3.52648 17.0681C3.61666 17.1132 3.71416 17.1359 3.81168 17.1359C3.89453 17.1359 3.97664 17.1209 4.05949 17.0909C4.23252 17.0307 4.37474 16.9032 4.44954 16.7305L10.7115 3.22412L9.08241 2.47336L2.67087 16.3027C2.43773 16.8057 2.33288 17.361 2.36294 17.9091L2.65548 23.2846C2.6628 23.4797 2.78305 23.6523 2.95607 23.7352C3.03086 23.7652 3.10637 23.7803 3.18115 23.7803C3.29406 23.7803 3.39891 23.7425 3.49641 23.6751L7.78324 20.4242C8.21874 20.0862 8.57139 19.6511 8.80453 19.1477Z"
                fill="#323063"
              />
              <path
                d="M15.9669 3.69738C16.1318 3.33667 16.1546 2.93893 16.0189 2.57124C15.884 2.20319 15.6062 1.9103 15.2535 1.74533L11.7849 0.138594C11.0488 -0.206721 10.1785 0.116241 9.83321 0.851965L9.39771 1.79042L15.5314 4.63584L15.9669 3.69738Z"
                fill="#323063"
              />
              <path
                d="M5.11091 17.5788C5.17836 17.7591 5.30593 17.8941 5.47089 17.9765L5.72604 18.0894C5.89173 18.1719 6.08675 18.1796 6.25905 18.1118C6.43207 18.0517 6.57431 17.9168 6.64983 17.7514L12.9111 4.24543L11.3941 3.54709L5.1329 17.0458C5.05812 17.2184 5.04272 17.4061 5.11091 17.5788Z"
                fill="#323063"
              />
            </g>
            <defs>
              <clipPath id="clip0_182_5275">
                <rect width="24" height="24" fill="white" />
              </clipPath>
            </defs>
          </svg>