<svg width="24" height="24" viewBox="0 0 24 24" fill="none" xmlns="http://www.w3.org/2000/svg">
<path fill-rule="evenodd" clip-rule="evenodd" d="M21.0379 11.6933C21.2081 12.3709 22.2051 12.3134 22.2933 11.6169C22.117 7.23417 19.1686 3.43196 14.968 2.17053C8.503 0.228194 1.74017 5.19477 1.70672 12.0363C1.65206 22.2616 14.5699 25.8814 20.4209 17.9241C21.6793 16.2126 19.6215 16.5896 18.7278 17.3558C18.2022 17.8086 16.1595 19.2647 14.7279 19.529C13.3723 19.7783 12.7767 18.9942 14.576 17.9269C15.1077 17.6107 15.6793 17.3285 16.0167 17.0274C16.3967 16.6928 16.2142 16.453 15.7493 16.4105C13.0683 16.1735 11.4453 18.3618 9.26283 18.3618C6.15354 18.3618 3.51216 15.5379 3.51216 11.9816C3.51216 4.839 11.4818 0.905798 17.1413 4.6901C19.4938 6.26159 20.9468 8.86315 21.0379 11.6933Z" fill="#323063" stroke="#323063"/>
</svg>
