<svg width="25" height="24" viewBox="0 0 25 24" fill="none" xmlns="http://www.w3.org/2000/svg">
<g clip-path="url(#clip0_182_5321)">
<path d="M23.6148 16.275C23.5448 16.2852 23.4696 16.2887 23.3882 16.284H21.3429C21.3307 16.284 21.3164 16.284 21.3042 16.2863C21.1208 16.2953 20.9701 16.2433 20.8479 16.1347C20.7155 16.0194 20.6054 15.834 20.5158 15.5875V7.73193C20.5158 7.72063 20.5138 7.70932 20.5138 7.69801C20.5138 7.57817 20.524 7.46965 20.5444 7.37465C20.5627 7.33395 20.5749 7.29325 20.579 7.25028C20.6157 7.14853 20.6645 7.06486 20.7297 6.99929C20.8866 6.841 21.1433 6.76412 21.4916 6.76412V6.76638H23.7773C23.7875 6.76638 23.7977 6.76412 23.8078 6.76412C23.9418 6.76412 24.0652 6.77171 24.1796 6.78589L24.2224 6.06645C24.0906 6.05141 23.9516 6.04449 23.8058 6.04506C23.7977 6.0428 23.7875 6.0428 23.7793 6.0428H21.4937V6.04506C20.9762 6.04506 20.5749 6.183 20.2938 6.46339C20.2286 6.52671 20.1716 6.59681 20.1227 6.67369L19.1408 5.94556C19.1347 5.94104 19.1286 5.93652 19.1225 5.932C18.9432 5.80084 18.7924 5.68326 18.6417 5.56567C17.9654 5.0388 17.2687 4.49836 16.462 4.26093C16.0403 4.13882 15.5514 4.05742 15.0482 4.04611C14.6041 4.03707 14.1498 4.08455 13.718 4.20892C13.445 4.28807 13.1843 4.39661 12.9398 4.53906C12.7076 4.67474 12.4916 4.84207 12.2981 5.04559C12.2818 5.06141 12.2696 5.07724 12.2574 5.09533L11.5749 5.99079C10.9129 5.9026 10.3608 5.96592 9.84337 6.14455C9.3178 6.32772 8.84315 6.6262 8.33387 7.00609H6.31101C6.22137 6.6669 6.04414 6.41817 5.79765 6.24179C5.49208 6.02245 5.08873 5.93426 4.6202 5.94104V5.9388H2.1369C2.12264 5.9388 2.11042 5.9388 2.09616 5.94104C1.9711 5.94744 1.85222 5.96298 1.73975 5.98799L1.78972 6.72287C1.88952 6.69207 2.00009 6.67115 2.12674 6.66464H4.62425V6.6624H4.62832C4.97667 6.65788 5.25983 6.70989 5.44928 6.84557C5.58781 6.94506 5.68151 7.10561 5.71615 7.3453V7.36791L5.72837 11.1962H5.72226V14.8414H5.72429C5.71207 15.3253 5.63059 15.7006 5.46354 15.9403C5.32094 16.1461 5.09279 16.2546 4.76277 16.2479C4.75259 16.2456 4.74036 16.2456 4.72814 16.2456H2.86418V16.2479C2.84584 16.2479 2.82547 16.2501 2.80714 16.2546C2.66992 16.2823 2.54588 16.2763 2.43636 16.2333L2.48765 16.9879C2.61451 17.0024 2.7471 16.9988 2.88658 16.9737H4.74851C5.30668 16.9873 5.708 16.7792 5.98301 16.3858C6.14598 16.1506 6.25395 15.8566 6.3171 15.5107H7.3927L8.77998 18.197C9.02443 18.6674 9.23833 19.0744 9.56019 19.3932C9.89632 19.7279 10.318 19.9337 10.9454 19.954C11.2082 19.9631 11.4588 19.9133 11.6971 19.8025C11.8662 19.7256 12.0271 19.6194 12.182 19.4859C12.677 19.7437 13.1435 19.8184 13.5835 19.7121C14.0154 19.6103 14.4065 19.3367 14.761 18.9003C15.1338 19.045 15.5025 19.0676 15.8671 18.9568C16.2297 18.846 16.5781 18.6041 16.9081 18.2219C17.1933 18.3531 17.4989 18.3825 17.7902 18.3282C18.0896 18.2739 18.3748 18.1315 18.6091 17.9257C18.8495 17.7131 19.0369 17.4327 19.1326 17.1026C19.2264 16.7815 19.2325 16.4197 19.1143 16.0375H19.9842C20.1044 16.3179 20.2571 16.5395 20.4405 16.7046C20.691 16.9262 20.9905 17.0325 21.3409 17.0121H23.3719C23.4405 17.0154 23.5067 17.0146 23.5711 17.0108L23.6148 16.275ZM18.5092 16.8855C18.4563 17.0709 18.3442 17.2337 18.2016 17.3603C18.0529 17.4892 17.8716 17.5797 17.6842 17.6136C17.4703 17.652 17.2462 17.6204 17.0527 17.496L15.5656 14.3891C15.4821 14.2104 15.2824 14.1426 15.1236 14.2376C14.9626 14.3303 14.9015 14.5519 14.9871 14.7282L16.4232 17.7312C16.1808 18.0116 15.9364 18.1834 15.6939 18.2581C15.4393 18.3349 15.1724 18.3078 14.8934 18.1812L13.3085 15.4179C13.2107 15.2483 13.009 15.2009 12.8583 15.3071C12.7055 15.4157 12.6627 15.6395 12.7585 15.8069L14.2639 18.4299C14.0072 18.742 13.7342 18.9342 13.445 19.0043C13.1292 19.0789 12.7768 19.0111 12.3877 18.7917L11.3427 16.6232C11.2591 16.4468 11.0615 16.379 10.9026 16.4739C10.7437 16.5666 10.6826 16.786 10.7682 16.9624L11.7297 18.9568C11.638 19.0314 11.5443 19.0902 11.4506 19.1332C11.2978 19.2033 11.1348 19.2349 10.9658 19.2304C10.5135 19.2168 10.2202 19.0789 9.99612 18.855C9.75777 18.6176 9.56628 18.2558 9.35035 17.8375L7.86733 14.9679C7.80825 14.8504 7.69825 14.7848 7.58417 14.7848H6.39041L6.38226 12.0328V7.72967H8.43365C8.50902 7.72967 8.58032 7.70027 8.63532 7.65279C9.12016 7.2842 9.56425 6.99929 10.0389 6.83419C10.3506 6.72565 10.6826 6.66912 11.0575 6.6759L9.27701 9.02761C9.21997 9.10449 9.19553 9.1972 9.20164 9.28991H9.1996C9.22812 9.67433 9.35035 9.99995 9.53573 10.2555C9.70685 10.4929 9.935 10.667 10.1937 10.7756C10.4463 10.8818 10.7234 10.9225 11.0106 10.8954C11.4465 10.857 11.9069 10.6602 12.3144 10.2962L12.3184 10.2939L12.8786 9.7806C12.9988 9.6698 13.1414 9.52508 13.284 9.38036C13.5203 9.14067 13.7566 8.90098 13.9807 8.754C14.2965 8.54596 14.6224 8.56179 14.985 9.23338L18.2444 15.7458C18.2587 15.8204 18.2933 15.8882 18.3422 15.9403L18.4665 16.1935C18.5622 16.449 18.5683 16.6842 18.5092 16.8855ZM19.8639 7.70254C19.8619 7.71158 19.8619 7.72289 19.8619 7.73193V15.3117H18.7741L15.5534 8.87839L15.5473 8.86708C14.9198 7.69801 14.2843 7.71158 13.6466 8.13441C13.3696 8.31757 13.1088 8.58214 12.8461 8.84897C12.7259 8.96881 12.6057 9.09092 12.4631 9.22207L11.9029 9.73538C11.6034 10.0022 11.2693 10.1447 10.9576 10.1741C10.7661 10.1922 10.5828 10.1673 10.4239 10.1017C10.2752 10.0384 10.1448 9.93889 10.047 9.80548C9.96352 9.68789 9.90241 9.54317 9.87185 9.37132L11.9171 6.66686C11.9558 6.63294 11.9884 6.59224 12.0108 6.54249L12.7523 5.56337C12.899 5.4096 13.064 5.28297 13.2413 5.17895C13.4409 5.06137 13.6568 4.97318 13.8789 4.90987C14.2517 4.80133 14.6469 4.76062 15.036 4.76967C15.48 4.77871 15.916 4.85107 16.2929 4.96187C16.9916 5.16539 17.6374 5.66965 18.2668 6.15808C18.44 6.29375 18.6131 6.42943 18.7578 6.53571C18.7639 6.54023 18.77 6.54475 18.7761 6.54927L19.8843 7.36559C19.87 7.47186 19.8639 7.58495 19.8639 7.70254Z" fill="#323063" stroke="#323063" stroke-width="0.7"/>
</g>
<defs>
<clipPath id="clip0_182_5321">
<rect width="24.038" height="24" fill="white" transform="translate(0.961914 4.57764e-05)"/>
</clipPath>
</defs>
</svg>
